<svg xmlns="http://www.w3.org/2000/svg" width="1080" height="1080" viewBox="0 0 1080 1080">
<defs><radialGradient id="g" cx=".5" cy=".42" r=".7"><stop offset="0" stop-color="#127a4c"/>
      <stop offset="1" stop-color="#03281a"/></radialGradient>
      <linearGradient id="gold" x1="0" y1="0" x2="1" y2="1"><stop offset="0" stop-color="#fff0b3"/>
      <stop offset=".35" stop-color="#e2b04a"/><stop offset=".55" stop-color="#9c6b16"/>
      <stop offset=".8" stop-color="#f6d77a"/><stop offset="1" stop-color="#b8862b"/></linearGradient><filter id="sh" x="-20%" y="-20%" width="140%" height="150%">
  <feGaussianBlur in="SourceAlpha" stdDeviation="14"/><feOffset dy="12" result="b"/>
  <feColorMatrix in="b" type="matrix" values="0 0 0 0 0 0 0 0 0 0 0 0 0 0 0 0 0 0 0.5 0" result="s"/>
  <feMerge><feMergeNode in="s"/><feMergeNode in="SourceGraphic"/></feMerge></filter><filter id="grain" x="0" y="0" width="100%" height="100%">
  <feTurbulence type="fractalNoise" baseFrequency="0.85" numOctaves="4" seed="3"/>
  <feColorMatrix type="matrix" values="0 0 0 0 0.5 0 0 0 0 0.5 0 0 0 0 0.5 0 0 0 0.1 0"/>
</filter></defs>
<rect width="1080" height="1080" fill="url(#g)"/><rect width="1080" height="1080" filter="url(#grain)"/><circle cx="540" cy="540" r="500" fill="none" stroke="url(#gold)" stroke-width="6" opacity=".9"/><circle cx="540" cy="540" r="484" fill="none" stroke="url(#gold)" stroke-width="1.5" opacity=".6"/><g transform="translate(220.000,235.974) scale(2.104571)" filter="url(#sh)"><polygon fill="url(#gold)" points="136.83 91.24 136.83 106.45 258.45 106.45 258.45 136.86 136.83 136.86 106.42 106.45 106.42 91.24 91.21 91.24 91.21 136.86 0 136.86 0 106.45 60.8 106.45 60.8 30.41 30.41 30.41 30.41 91.24 0 91.24 0 0 91.21 0 91.21 60.83 182.45 60.83 182.45 30.41 121.62 30.41 121.62 0 182.45 0 212.86 30.41 212.86 60.83 273.69 60.83 273.69 0 304.1 30.41 304.1 91.24 136.83 91.24"/><path fill="#f7f1e1" d="M273.69,136.86H167.25v60.82H136.83V136.86H106.41V258.52H91.21V167.28L60.79,136.86H0V288.92H136.83V228.1h30.42v60.82h30.4V167.28h15.21V288.92H304.1V167.28ZM60.79,258.52H30.41V228.1H60.79Zm0-60.84H30.41v-30.4H60.79Zm212.9,60.84H243.27V167.28h30.42Z"/><polygon fill="url(#gold)" points="273.68 136.87 273.68 106.46 304.09 106.46 273.68 136.87"/></g>
</svg>
